<svg width="77" height="14" viewBox="0 0 77 14" fill="none" xmlns="http://www.w3.org/2000/svg">
<path d="M28.5764 11.311L27.8569 9.83915H23.0001L22.2806 11.311H19.7622L23.7556 3.31165H27.0654L31.2387 11.279H28.5764V11.311ZM27.0294 8.17528L25.4105 4.91152L23.8275 8.17528H27.0294Z" fill="white"/>
<path d="M36.3115 11.407C35.0523 11.407 34.045 11.183 33.2175 10.767C32.498 10.415 31.9583 9.90297 31.5986 9.23095C31.2748 8.68693 31.1309 8.07891 31.1309 7.40688V7.11887C31.1309 6.47885 31.2748 5.87083 31.5986 5.35881C31.9583 4.71879 32.498 4.20677 33.2175 3.82276C34.045 3.40675 35.1242 3.18274 36.3834 3.18274H36.7792C38.578 3.18274 39.9091 3.50275 40.8085 4.11077C41.2043 4.36678 41.4921 4.65479 41.636 5.0068C41.8159 5.32681 41.8878 5.67882 41.8878 6.03084V6.06284H39.3335L39.1896 5.80683C39.0097 5.51882 38.614 5.29481 37.9664 5.13481C37.6066 5.0388 37.1389 5.0068 36.5633 5.0068C35.556 5.0068 34.8005 5.23081 34.2968 5.67882C33.901 6.06284 33.6852 6.57486 33.6852 7.18288V7.31088C33.6852 7.59889 33.7212 7.8549 33.8291 8.14291C33.937 8.39892 34.0809 8.65493 34.3328 8.84693C34.8724 9.35895 35.6279 9.58296 36.6353 9.58296C37.5347 9.58296 38.2182 9.39095 38.7219 9.03894C38.9018 8.91094 39.0457 8.75093 39.1176 8.62293C39.1896 8.49492 39.2256 8.39892 39.2256 8.33492H36.7792V6.89487H41.9598V11.247H39.9811C39.9811 11.151 39.9811 10.959 39.9811 10.671C39.9811 10.383 39.9811 10.031 39.9811 9.83897C39.9091 9.90297 39.6573 10.223 39.4054 10.415C39.0097 10.735 38.506 11.023 37.8225 11.183C37.4267 11.279 36.995 11.343 36.4554 11.343H36.3115V11.407Z" fill="white"/>
<path d="M52.8982 8.17619C53.2219 8.52823 53.4018 8.97628 53.4018 9.55235V10.3844C53.4018 10.7045 53.4018 10.8965 53.4378 10.9925C53.4738 11.0885 53.5097 11.1845 53.5457 11.2485V11.3125H50.9914C50.9554 11.2485 50.9554 11.1845 50.9554 11.1525C50.9194 11.0885 50.9194 10.9605 50.9194 10.7685V10.1284C50.9194 9.58435 50.7755 9.23231 50.5237 8.97628C50.2719 8.75226 49.8402 8.62424 49.2286 8.62424H45.9907V11.3445H43.5083V3.31165H49.5523C51.0634 3.31165 52.1067 3.56767 52.7183 4.04773C53.114 4.36776 53.3299 4.84782 53.3299 5.45589V5.5519C53.3299 6.03195 53.15 6.448 52.8262 6.76803C52.5024 7.08807 52.0347 7.31209 51.4591 7.44011C52.0707 7.60013 52.5744 7.82415 52.8982 8.17619ZM45.9907 6.76803H49.4444C49.9121 6.76803 50.2359 6.67202 50.4518 6.512C50.6316 6.38399 50.7036 6.19197 50.7036 5.93594V5.90394C50.7036 5.64791 50.6316 5.45589 50.4518 5.32787C50.2359 5.16785 49.9121 5.10385 49.4444 5.10385H45.9907V6.76803Z" fill="white"/>
<path d="M60.2375 3.18274C61.2449 3.18274 62.0723 3.31076 62.7919 3.53479C63.5114 3.75882 64.087 4.07886 64.5187 4.49492C64.9145 4.84697 65.2023 5.26303 65.3822 5.74309C65.562 6.19116 65.67 6.67122 65.67 7.15129V7.47133C65.67 7.9514 65.562 8.39946 65.3822 8.84753C65.2023 9.29559 64.9145 9.71165 64.5187 10.0957C64.087 10.5118 63.5114 10.8638 62.7919 11.0878C62.0723 11.3119 61.2449 11.4399 60.2375 11.4399H59.6979C58.4027 11.4399 57.3234 11.2159 56.46 10.7998C55.7045 10.4157 55.1289 9.90367 54.8051 9.26358C54.4813 8.71951 54.3374 8.11142 54.3374 7.47133V7.15129C54.3374 6.5112 54.4813 5.90312 54.8051 5.35904C55.1649 4.71895 55.7045 4.20688 56.46 3.85483C57.3234 3.43877 58.4027 3.21474 59.6979 3.21474H60.2375V3.18274ZM63.0437 7.2153C63.0437 6.60721 62.8638 6.12715 62.4681 5.74309C61.9644 5.26303 61.1369 5.00699 59.9857 5.00699C58.8704 5.00699 58.043 5.26303 57.5033 5.74309C57.1076 6.12715 56.8917 6.60721 56.8917 7.2153V7.37532C56.8917 7.63136 56.9277 7.88739 57.0356 8.14343C57.1436 8.39946 57.2875 8.62349 57.5033 8.81552C58.043 9.32759 58.8704 9.58363 59.9497 9.58363C61.101 9.58363 61.9284 9.32759 62.4321 8.81552C62.8278 8.43147 63.0077 7.9514 63.0077 7.34332V7.2153H63.0437Z" fill="white"/>
<path d="M71.1753 11.4401C69.8802 11.4401 68.8368 11.2801 68.0813 10.9601C67.4697 10.7041 67.038 10.352 66.7502 9.87203C66.5703 9.55202 66.4624 9.20001 66.4624 8.75199V8.68799H69.1606C69.1606 8.976 69.3045 9.20001 69.5204 9.39201C69.8442 9.68002 70.4198 9.84003 71.2832 9.84003H71.3552C72.1827 9.84003 72.7583 9.74403 73.118 9.52002C73.3339 9.39201 73.4778 9.16801 73.4778 8.88C73.4778 8.62399 73.3699 8.43198 73.118 8.30398C72.8302 8.17597 72.3266 8.07997 71.643 8.04797L70.4558 8.01597C69.0887 7.98396 68.0813 7.72796 67.4338 7.27994C66.8581 6.89593 66.6063 6.35191 66.6063 5.71189V5.61588C66.6063 4.87986 66.8941 4.33584 67.4338 3.95183C68.1533 3.47181 69.3405 3.2478 71.0674 3.2478H71.4631C73.226 3.2478 74.4852 3.50381 75.2047 4.01583C75.7084 4.36784 75.9602 4.91186 75.9602 5.58388V5.71189H73.2979C73.262 5.58388 73.226 5.48788 73.19 5.39188C73.154 5.29587 73.0461 5.19987 72.9382 5.13587C72.6144 4.94386 72.0388 4.84786 71.2832 4.84786H71.1753C70.4198 4.84786 69.8802 4.91186 69.5924 5.03986C69.3405 5.16787 69.1966 5.32787 69.1966 5.55188C69.1966 5.77589 69.3045 5.9679 69.5204 6.0639C69.7722 6.1919 70.2399 6.28791 70.9235 6.31991L72.1827 6.35191C73.6937 6.41591 74.737 6.63992 75.3486 7.05593C75.8882 7.40795 76.1401 7.95196 76.1401 8.68799V8.81599C76.1401 9.58402 75.8882 10.16 75.3486 10.5761C74.5931 11.1841 73.3339 11.4721 71.5351 11.4721H71.1753V11.4401Z" fill="white"/>
<path d="M15.2638 8.17557H10.4789L13.8607 11.1838C13.9687 11.2798 13.9687 11.4398 13.8607 11.5678C13.7168 11.7278 13.5729 11.8878 13.393 12.0159C13.2491 12.1439 13.0693 12.3039 12.8894 12.4319C12.7814 12.5279 12.5656 12.5279 12.4577 12.4319L9.07587 9.42366V13.68C9.07587 13.84 8.96794 13.936 8.78806 13.968C8.5722 14 8.35634 14 8.10451 14C7.88865 14 7.63681 14 7.42095 13.968C7.24107 13.968 7.13314 13.84 7.13314 13.68V9.39166L3.75136 12.3999C3.64343 12.4959 3.46354 12.4959 3.31964 12.4319C3.17573 12.3039 3.03183 12.2079 2.88792 12.0799C2.85195 12.0479 2.81597 12.0159 2.74402 11.9518C2.60011 11.8238 2.4562 11.6958 2.34828 11.5678C2.24035 11.4718 2.24035 11.3118 2.38425 11.1838L5.76604 8.17557H1.05312C0.873242 8.17557 0.765312 8.07956 0.729336 7.91955C0.693359 7.72753 0.693359 7.53552 0.693359 7.3115C0.693359 7.08749 0.693359 6.89547 0.729336 6.70346C0.729336 6.57545 0.873242 6.44744 1.05312 6.44744H5.83799L2.42023 3.43922C2.3123 3.34321 2.3123 3.1832 2.42023 3.05519C2.56413 2.92718 2.70804 2.76717 2.88792 2.63916C3.03183 2.47914 3.21171 2.35114 3.39159 2.22313C3.49952 2.12712 3.71538 2.12712 3.82331 2.22313L7.20509 5.23135V1.00704C7.20509 0.847024 7.31302 0.751016 7.49291 0.719014C7.70876 0.687012 7.92462 0.687012 8.14048 0.687012C8.35634 0.687012 8.60817 0.687012 8.82403 0.719014C9.00392 0.719014 9.11185 0.847024 9.11185 1.00704V5.26335L12.4936 2.25513C12.6016 2.15912 12.7814 2.15912 12.9253 2.25513C13.1052 2.38314 13.2491 2.51115 13.429 2.67116C13.5729 2.79917 13.7528 2.95918 13.8967 3.11919C14.0046 3.2152 14.0046 3.40721 13.8967 3.50322L10.4789 6.44744H15.2638C15.4437 6.44744 15.5516 6.54345 15.5876 6.70346C15.6236 6.89547 15.6236 7.08749 15.6236 7.3115C15.6236 7.53552 15.6236 7.72753 15.5876 7.91955C15.5516 8.07956 15.4077 8.17557 15.2638 8.17557Z" fill="white"/>
</svg>
